<svg width="24" height="24" viewBox="0 0 24 24" fill="none" xmlns="http://www.w3.org/2000/svg">
<path d="M17.3039 21.0151C18.4897 19.8326 19.4301 18.4274 20.0711 16.8803C20.7121 15.3332 21.041 13.6747 21.0389 12.0001C21.041 10.3255 20.7121 8.66697 20.0711 7.11987C19.4301 5.57277 18.4897 4.1676 17.3039 2.98511L16.2419 4.04561C17.2882 5.08899 18.118 6.32887 18.6835 7.69397C19.2491 9.05907 19.5393 10.5225 19.5374 12.0001C19.5374 15.1066 18.2774 17.9191 16.2419 19.9546L17.3039 21.0151V21.0151Z" fill="white"/>
<path d="M15.1815 18.8942C16.0882 17.9899 16.8073 16.9153 17.2974 15.7322C17.7875 14.5491 18.039 13.2808 18.0375 12.0002C18.039 10.7196 17.7875 9.45131 17.2974 8.26821C16.8073 7.08511 16.0882 6.01053 15.1815 5.1062L14.121 6.1667C14.8882 6.93192 15.4966 7.84121 15.9113 8.84231C16.326 9.84342 16.5388 10.9166 16.5375 12.0002C16.5392 13.0839 16.3268 14.1574 15.9123 15.1587C15.4979 16.1601 14.8896 17.0697 14.1225 17.8352L15.1815 18.8942Z" fill="white"/>
<path d="M15.0375 12.0002C15.0387 12.8867 14.8646 13.7648 14.5253 14.5839C14.186 15.4031 13.6882 16.147 13.0605 16.7732L12 15.7127C12.4882 15.2257 12.8754 14.647 13.1393 14.0098C13.4031 13.3727 13.5385 12.6897 13.5375 12.0002C13.5375 10.5512 12.9495 9.23865 12 8.28765L13.0605 7.22715C13.6882 7.85326 14.186 8.59725 14.5253 9.41636C14.8646 10.2355 15.0387 11.1136 15.0375 12.0002V12.0002ZM10.5 6.00015C10.4998 5.85903 10.4598 5.72082 10.3846 5.60142C10.3093 5.48201 10.2019 5.38626 10.0747 5.32516C9.9475 5.26406 9.80562 5.24009 9.6654 5.25601C9.52517 5.27193 9.39228 5.32709 9.282 5.41515L5.7375 8.25015H2.25C2.05109 8.25015 1.86032 8.32917 1.71967 8.46982C1.57902 8.61048 1.5 8.80124 1.5 9.00015V15.0002C1.5 15.1991 1.57902 15.3898 1.71967 15.5305C1.86032 15.6711 2.05109 15.7502 2.25 15.7502H5.7375L9.282 18.5852C9.39228 18.6732 9.52517 18.7284 9.6654 18.7443C9.80562 18.7602 9.9475 18.7363 10.0747 18.6752C10.2019 18.614 10.3093 18.5183 10.3846 18.3989C10.4598 18.2795 10.4998 18.1413 10.5 18.0002V6.00015ZM6.468 9.58515L9 7.56015V16.4402L6.468 14.4152C6.33524 14.3086 6.1702 14.2505 6 14.2502H3V9.75015H6C6.1702 9.74985 6.33524 9.69166 6.468 9.58515V9.58515Z" fill="white"/>
</svg>
